<svg xmlns="http://www.w3.org/2000/svg" viewBox="0 0 24 24" fill="none" aria-hidden="true">
  <path d="M6 6.5C6 5.7 6.7 5 7.5 5H11.5C12.9 5 14 6.1 14 7.5V18.5C14 17.1 12.9 16 11.5 16H7.5C6.7 16 6 16.7 6 17.5V6.5Z" stroke="currentColor" stroke-width="1.9" stroke-linecap="round" stroke-linejoin="round"/>
  <path d="M18 6.5C18 5.7 17.3 5 16.5 5H12.5C11.1 5 10 6.1 10 7.5V18.5C10 17.1 11.1 16 12.5 16H16.5C17.3 16 18 16.7 18 17.5V6.5Z" stroke="currentColor" stroke-width="1.9" stroke-linecap="round" stroke-linejoin="round"/>
  <path d="M8.5 8.5H10.5" stroke="currentColor" stroke-width="1.9" stroke-linecap="round" stroke-linejoin="round"/>
  <path d="M8.5 11H11" stroke="currentColor" stroke-width="1.9" stroke-linecap="round" stroke-linejoin="round"/>
  <path d="M13.5 8L14.6 9.1L16.5 7.2" stroke="currentColor" stroke-width="1.9" stroke-linecap="round" stroke-linejoin="round"/>
  <path d="M13.5 11L14.6 12.1L16.5 10.2" stroke="currentColor" stroke-width="1.9" stroke-linecap="round" stroke-linejoin="round"/>
</svg>
